<svg width="29" height="29" viewBox="0 0 29 29" fill="none" xmlns="http://www.w3.org/2000/svg">
<path d="M14.5088 0.402496C6.75339 0.402496 0.446289 6.7096 0.446289 14.465C0.446289 22.2204 6.75339 28.5275 14.5088 28.5275C22.2642 28.5275 28.5713 22.2204 28.5713 14.465C28.5713 6.7096 22.2642 0.402496 14.5088 0.402496ZM14.5088 2.2775C21.2509 2.2775 26.7036 7.72292 26.7036 14.465C26.7036 21.2071 21.2509 26.6598 14.5088 26.6598C7.76671 26.6598 2.32129 21.2071 2.32129 14.465C2.32129 7.72292 7.76671 2.2775 14.5088 2.2775ZM14.496 6.97049C14.2483 6.97485 14.0124 7.07705 13.8398 7.25477C13.6673 7.43249 13.572 7.67127 13.5749 7.91897V8.70816C12.0612 8.99213 10.7661 9.96688 10.7661 11.6562C10.7661 12.828 11.2944 13.7758 12.0039 14.3277C12.7134 14.8795 13.5145 15.1242 14.2176 15.3585C14.9208 15.5929 15.5277 15.817 15.8729 16.0855C16.2181 16.354 16.3838 16.5799 16.3838 17.283C16.3838 18.8455 12.6411 18.8455 12.6411 17.283C12.6439 17.1581 12.6217 17.034 12.5758 16.9178C12.5299 16.8016 12.4613 16.6958 12.374 16.6065C12.2867 16.5172 12.1824 16.4463 12.0673 16.3978C11.9521 16.3494 11.8285 16.3245 11.7036 16.3245C11.5787 16.3245 11.4551 16.3494 11.34 16.3978C11.2248 16.4463 11.1206 16.5172 11.0332 16.6065C10.9459 16.6958 10.8773 16.8016 10.8314 16.9178C10.7855 17.034 10.7633 17.1581 10.7661 17.283C10.7661 18.9709 12.0624 19.9475 13.5749 20.2328V21.0183C13.5722 21.1432 13.5944 21.2674 13.6403 21.3835C13.6861 21.4997 13.7547 21.6055 13.8421 21.6948C13.9294 21.7841 14.0337 21.855 14.1488 21.9035C14.2639 21.9519 14.3876 21.9769 14.5124 21.9769C14.6373 21.9769 14.761 21.9519 14.8761 21.9035C14.9912 21.855 15.0955 21.7841 15.1828 21.6948C15.2702 21.6055 15.3388 21.4997 15.3846 21.3835C15.4305 21.2674 15.4527 21.1432 15.4499 21.0183V20.2328C16.9628 19.9477 18.2606 18.9712 18.2606 17.283C18.2606 16.1111 17.7305 15.1633 17.021 14.6115C16.3115 14.0596 15.5104 13.8131 14.8072 13.5788C14.1041 13.3444 13.4972 13.1221 13.152 12.8537C12.8068 12.5852 12.6411 12.3593 12.6411 11.6562C12.6411 10.0937 16.3838 10.0937 16.3838 11.6562C16.3838 11.905 16.4827 12.1437 16.6586 12.3197C16.8346 12.4957 17.0733 12.5946 17.3222 12.5946C17.5711 12.5946 17.8098 12.4957 17.9858 12.3197C18.1617 12.1437 18.2606 11.905 18.2606 11.6562C18.2606 9.96942 16.9624 8.99564 15.4499 8.70999V7.91897C15.4514 7.79354 15.4277 7.66909 15.3802 7.55299C15.3327 7.43688 15.2624 7.33149 15.1735 7.24305C15.0845 7.1546 14.9787 7.08491 14.8624 7.03809C14.746 6.99128 14.6214 6.96829 14.496 6.97049Z" fill="#FAFAFA"/>
</svg>
