<svg width="32" height="31" viewBox="0 0 32 31" fill="none" xmlns="http://www.w3.org/2000/svg">
<path d="M0 0.568215H11.0238V30.7675H0V0.568215ZM5.04022 23.5357H6.01727V8.47157H5.04022V23.5357ZM32 1.23328V8.63299H29.9111V10.1633H22.8494V8.63299H20.518V10.1633H13.6315V8.63299H11.893V1.23328H13.6315V0H20.518V1.23328H22.8494V0H29.9111V1.23328H32ZM11.893 10.9704H32V31H11.893V10.9704ZM18.2944 16.6655V19.1321H19.5477V16.6655H18.2944ZM18.2944 25.3372H19.5477V22.8707H18.2944V25.3372ZM25.1472 16.6655H23.8939V19.1321H25.1472V16.6655ZM25.1472 25.3372V22.8707H23.8939V25.3372H25.1472Z" fill="#4527A0"/>
</svg>
